<svg width="500" height="213" viewBox="0 0 500 213" fill="none" xmlns="http://www.w3.org/2000/svg">
<path d="M0.5625 51.0312V19.4375C0.5625 15.8125 1.90625 12.2812 4.59375 8.84375C8.15625 4.28125 12.9688 1.96875 19.0312 1.90625V15.125C16.4062 15.1875 14.7188 16.4062 13.9688 18.7812C13.8438 19.0312 13.7812 19.25 13.7812 19.4375V51.0312C13.7812 52.0312 14.3125 53 15.375 53.9375C16.375 54.8125 17.5938 55.25 19.0312 55.25V68.4688C12.0312 68.4688 6.75 65.5312 3.1875 59.6562C1.4375 56.6562 0.5625 53.7812 0.5625 51.0312ZM24.0938 68.4688V55.25C24.0938 55.25 24.8125 54.9688 26.25 54.4062C27.125 53.7812 27.7188 53.125 28.0312 52.4375C28.3438 51.625 28.5 50.4688 28.5 48.9688V47.8438L41.4375 50.9375C41.4375 56.375 39.25 60.875 34.875 64.4375C31.5625 67.125 27.9688 68.4688 24.0938 68.4688ZM24.0938 15.125V1.90625C28.6562 1.90625 32.7812 3.90625 36.4688 7.90625C39.7812 11.5312 41.4375 15.4375 41.4375 19.625L28.5 23V21.5938C28.5 20.0312 28.3438 18.875 28.0312 18.125C27.7812 17.5 27.3125 16.9375 26.625 16.4375C26 15.9375 25.4375 15.5938 24.9375 15.4062L24.0938 15.125ZM46.875 53.4688V29C46.875 25.9375 48.2188 22.9375 50.9062 20C54.2812 16.4375 58.5625 14.625 63.75 14.5625V26.75C60.9375 27 59.4375 28.1875 59.25 30.3125V52.1562C59.375 54.5938 60.875 55.8438 63.75 55.9062V68.0938C57.625 68.0938 52.875 65.625 49.5 60.6875C47.75 58.125 46.875 55.7188 46.875 53.4688ZM68.0625 68.0938V55.9062C70.6875 55.5938 72.125 54.4062 72.375 52.3438L72.2812 30.3125C71.8438 28.0625 70.4062 26.875 67.9688 26.75V14.5625C73.8438 14.5625 78.4375 16.9375 81.75 21.6875C83.5 24.25 84.375 26.6875 84.375 29V53.4688C84.375 56.5938 83.0312 59.6562 80.3438 62.6562C77.0938 66.2188 73 68.0312 68.0625 68.0938ZM91.5 68V29.0938C91.5 25.9688 92.875 22.9375 95.625 20C99.125 16.375 103.406 14.5312 108.469 14.4688V26.9375C105.969 27.3125 104.562 28.5625 104.25 30.6875V68H91.5ZM112.781 26.9375V14.4688C117.031 14.5312 120.656 15.6875 123.656 17.9375C126.531 15.625 130.125 14.4688 134.438 14.4688V26.9375C131.562 27 130.094 28.25 130.031 30.6875V68H117.281V30.6875C117.156 28.25 115.656 27 112.781 26.9375ZM138.656 26.9375V14.4688C144.719 14.4688 149.5 16.875 153 21.6875C154.875 24.3125 155.812 26.7812 155.812 29.0938V68H143.062V30.6875C142.938 28.25 141.469 27 138.656 26.9375ZM164.062 6.96875C164.062 4.40625 165.219 2.46875 167.531 1.15625C168.594 0.53125 169.719 0.21875 170.906 0.21875C173.531 0.21875 175.5 1.375 176.812 3.6875C177.375 4.75 177.656 5.84375 177.656 6.96875C177.656 9.59375 176.5 11.5625 174.188 12.875C173.125 13.4375 172.031 13.7188 170.906 13.7188C168.219 13.7188 166.219 12.5312 164.906 10.1562C164.344 9.15625 164.062 8.09375 164.062 6.96875ZM164.719 68V17.375H177.281V68H164.719ZM185.156 53.4688V29.0938C185.219 26.1562 186.5 23.2188 189 20.2812C192.125 16.7188 196 14.9062 200.625 14.8438H203.719V26.9375H200.625C198.812 27.125 197.719 28 197.344 29.5625V53.2812C197.344 53.9688 197.781 54.625 198.656 55.25C199.281 55.625 200 55.8125 200.812 55.8125H203.719V68H200.812C195.125 68 190.688 65.4688 187.5 60.4062C185.938 57.9062 185.156 55.5938 185.156 53.4688ZM208.688 68V0.875H221.719L221.625 68H208.688ZM227.906 55.625V50.8438C227.969 46.8438 229.656 43.75 232.969 41.5625C233.781 41.125 237.062 39.9062 242.812 37.9062C249.5 35.6562 252.844 33.6562 252.844 31.9062V29.75C252.781 27.5 251.406 26.2812 248.719 26.0938V14.5625C253.406 14.5625 257.344 16.1562 260.531 19.3438C263.406 22.2812 264.844 25.4688 264.844 28.9062V53.375C264.906 55.25 265.781 56.25 267.469 56.375V68C263.656 68 260.594 67 258.281 65C255.844 66.9375 252.688 67.9375 248.812 68V56.4688C249.312 56.4688 249.781 56.4062 250.219 56.2812C251.969 55.7812 252.844 54.5938 252.844 52.7188V45.0312C251.156 46.0312 247.875 47.2188 243 48.5938C241 49.0938 239.844 49.4375 239.531 49.625C238.781 50 238.375 50.7188 238.312 51.7812V53.0938C238.312 53.4688 238.344 53.8438 238.406 54.2188C238.781 55.7188 240.562 56.4688 243.75 56.4688V68C239.562 68 236 66.9375 233.062 64.8125C229.625 62.3125 227.906 59.25 227.906 55.625ZM228.562 27.9688C228.625 24.7812 229.938 21.875 232.5 19.25C235.75 16.125 239.531 14.5625 243.844 14.5625V26.0938C240.969 26.1562 239.5 28.1562 239.438 32.0938L228.562 27.9688ZM271.688 53.9375L283.312 51.7812C283.312 53.8438 284.375 55.3125 286.5 56.1875C287.25 56.4375 287.938 56.5938 288.562 56.6562V68.4688C281.312 68.4688 276.281 65.9062 273.469 60.7812C272.281 58.6562 271.688 56.375 271.688 53.9375ZM272.25 29.1875C272.25 23.375 274.969 19.0625 280.406 16.25C283.094 14.8125 285.75 14.0938 288.375 14.0938V25.7188C285.312 25.7812 283.781 26.9375 283.781 29.1875C283.781 31.5625 286.656 33.6562 292.406 35.4688C294.531 36.1562 297.031 36.8125 299.906 37.4375C304.219 38.25 307.281 40.6562 309.094 44.6562C310.031 46.7188 310.5 49 310.5 51.5C310.5 58 307.938 62.7812 302.812 65.8438C299.875 67.5938 296.531 68.4688 292.781 68.4688V56.6562C294.969 56.6562 296.594 55.9375 297.656 54.5C298.156 53.8125 298.406 53.0625 298.406 52.25C298.406 50.3125 296.031 48.625 291.281 47.1875C290.531 47 289.375 46.6875 287.812 46.25C284.5 45.375 282.219 44.6562 280.969 44.0938C276.406 41.7812 273.656 38.375 272.719 33.875C272.406 32.375 272.25 30.8125 272.25 29.1875ZM292.594 25.7188L292.688 14.0938C298.312 14.0938 302.844 16.1562 306.281 20.2812C308.469 22.9688 309.562 25.8125 309.562 28.8125L298.031 30.7812C298.031 27.9688 296.531 26.3125 293.531 25.8125C293.156 25.75 292.844 25.7188 292.594 25.7188ZM356.438 68V55.8125H359.625C361.688 55.6875 362.938 54.8438 363.375 53.2812V29.2812C363.375 28.4688 362.875 27.7812 361.875 27.2188C361.188 26.9062 360.438 26.75 359.625 26.75H356.438V14.5625H359.625C365.5 14.5625 370.062 17.0625 373.312 22.0625C374.938 24.625 375.75 26.9688 375.75 29.0938V53.4688C375.75 56.3438 374.5 59.2812 372 62.2812C368.688 66.0312 364.562 67.9375 359.625 68H356.438ZM338.531 86.6562V14.5625H351.75V86.6562H338.531ZM382.312 55.625V50.8438C382.375 46.8438 384.062 43.75 387.375 41.5625C388.188 41.125 391.469 39.9062 397.219 37.9062C403.906 35.6562 407.25 33.6562 407.25 31.9062V29.75C407.188 27.5 405.812 26.2812 403.125 26.0938V14.5625C407.812 14.5625 411.75 16.1562 414.938 19.3438C417.812 22.2812 419.25 25.4688 419.25 28.9062V53.375C419.312 55.25 420.188 56.25 421.875 56.375V68C418.062 68 415 67 412.688 65C410.25 66.9375 407.094 67.9375 403.219 68V56.4688C403.719 56.4688 404.188 56.4062 404.625 56.2812C406.375 55.7812 407.25 54.5938 407.25 52.7188V45.0312C405.562 46.0312 402.281 47.2188 397.406 48.5938C395.406 49.0938 394.25 49.4375 393.938 49.625C393.188 50 392.781 50.7188 392.719 51.7812V53.0938C392.719 53.4688 392.75 53.8438 392.812 54.2188C393.188 55.7188 394.969 56.4688 398.156 56.4688V68C393.969 68 390.406 66.9375 387.469 64.8125C384.031 62.3125 382.312 59.25 382.312 55.625ZM382.969 27.9688C383.031 24.7812 384.344 21.875 386.906 19.25C390.156 16.125 393.938 14.5625 398.25 14.5625V26.0938C395.375 26.1562 393.906 28.1562 393.844 32.0938L382.969 27.9688ZM428.156 68V14.5625H440.906V20.4688C443.094 17.6562 446.062 15.7188 449.812 14.6562C451.125 14.2812 452.438 14.0938 453.75 14.0938H457.125L454.219 26.6562C450.281 26.7188 446.875 28.4375 444 31.8125C441.938 34.25 440.906 36.7812 440.906 39.4062V68H428.156ZM460.406 55.625V50.8438C460.469 46.8438 462.156 43.75 465.469 41.5625C466.281 41.125 469.562 39.9062 475.312 37.9062C482 35.6562 485.344 33.6562 485.344 31.9062V29.75C485.281 27.5 483.906 26.2812 481.219 26.0938V14.5625C485.906 14.5625 489.844 16.1562 493.031 19.3438C495.906 22.2812 497.344 25.4688 497.344 28.9062V53.375C497.406 55.25 498.281 56.25 499.969 56.375V68C496.156 68 493.094 67 490.781 65C488.344 66.9375 485.188 67.9375 481.312 68V56.4688C481.812 56.4688 482.281 56.4062 482.719 56.2812C484.469 55.7812 485.344 54.5938 485.344 52.7188V45.0312C483.656 46.0312 480.375 47.2188 475.5 48.5938C473.5 49.0938 472.344 49.4375 472.031 49.625C471.281 50 470.875 50.7188 470.812 51.7812V53.0938C470.812 53.4688 470.844 53.8438 470.906 54.2188C471.281 55.7188 473.062 56.4688 476.25 56.4688V68C472.062 68 468.5 66.9375 465.562 64.8125C462.125 62.3125 460.406 59.25 460.406 55.625ZM461.062 27.9688C461.125 24.7812 462.438 21.875 465 19.25C468.25 16.125 472.031 14.5625 476.344 14.5625V26.0938C473.469 26.1562 472 28.1562 471.938 32.0938L461.062 27.9688ZM0.5625 195.031V163.438C0.5625 159.812 1.90625 156.281 4.59375 152.844C8.15625 148.281 12.9688 145.969 19.0312 145.906V159.125C16.4062 159.188 14.7188 160.406 13.9688 162.781C13.8438 163.031 13.7812 163.25 13.7812 163.438V195.031C13.7812 196.031 14.3125 197 15.375 197.938C16.375 198.812 17.5938 199.25 19.0312 199.25V212.469C12.0312 212.469 6.75 209.531 3.1875 203.656C1.4375 200.656 0.5625 197.781 0.5625 195.031ZM24.0938 212.469V199.25C24.0938 199.25 24.8125 198.969 26.25 198.406C27.125 197.781 27.7188 197.125 28.0312 196.438C28.3438 195.625 28.5 194.469 28.5 192.969V191.844L41.4375 194.938C41.4375 200.375 39.25 204.875 34.875 208.438C31.5625 211.125 27.9688 212.469 24.0938 212.469ZM24.0938 159.125V145.906C28.6562 145.906 32.7812 147.906 36.4688 151.906C39.7812 155.531 41.4375 159.438 41.4375 163.625L28.5 167V165.594C28.5 164.031 28.3438 162.875 28.0312 162.125C27.7812 161.5 27.3125 160.938 26.625 160.438C26 159.938 25.4375 159.594 24.9375 159.406L24.0938 159.125ZM47.25 212.75V144.875H58.9688V160.812C60.2188 160.375 61.9062 160.156 64.0312 160.156V171.688C61.8438 171.688 60.25 172.688 59.25 174.688C59.125 174.938 59.0625 175.125 59.0625 175.25V212.75H47.25ZM68.625 171.688V160.156C74.6875 160.156 79.25 162.312 82.3125 166.625C84 168.938 84.8438 171.5 84.8438 174.312V212.75H73.125V175.25C73.125 174.375 72.625 173.531 71.625 172.719C70.8125 172.031 69.8125 171.688 68.625 171.688ZM91.2188 197.844V158.562H103.969V196.344C104.094 198.719 105.531 199.938 108.281 200V212.469C102.156 212.469 97.375 210.062 93.9375 205.25C92.125 202.688 91.2188 200.219 91.2188 197.844ZM112.594 212.469V200C115.281 199.688 116.75 198.469 117 196.344V158.562H129.75V197.844C129.75 200.781 128.375 203.75 125.625 206.75C122.125 210.5 117.781 212.406 112.594 212.469ZM137.25 212V158.562H150V164.469C152.188 161.656 155.156 159.719 158.906 158.656C160.219 158.281 161.531 158.094 162.844 158.094H166.219L163.312 170.656C159.375 170.719 155.969 172.438 153.094 175.812C151.031 178.25 150 180.781 150 183.406V212H137.25ZM171.094 212V158.562H183.844V164.469C186.031 161.656 189 159.719 192.75 158.656C194.062 158.281 195.375 158.094 196.688 158.094H200.062L197.156 170.656C193.219 170.719 189.812 172.438 186.938 175.812C184.875 178.25 183.844 180.781 183.844 183.406V212H171.094ZM203.344 199.625V194.844C203.406 190.844 205.094 187.75 208.406 185.562C209.219 185.125 212.5 183.906 218.25 181.906C224.938 179.656 228.281 177.656 228.281 175.906V173.75C228.219 171.5 226.844 170.281 224.156 170.094V158.562C228.844 158.562 232.781 160.156 235.969 163.344C238.844 166.281 240.281 169.469 240.281 172.906V197.375C240.344 199.25 241.219 200.25 242.906 200.375V212C239.094 212 236.031 211 233.719 209C231.281 210.938 228.125 211.938 224.25 212V200.469C224.75 200.469 225.219 200.406 225.656 200.281C227.406 199.781 228.281 198.594 228.281 196.719V189.031C226.594 190.031 223.312 191.219 218.438 192.594C216.438 193.094 215.281 193.438 214.969 193.625C214.219 194 213.812 194.719 213.75 195.781V197.094C213.75 197.469 213.781 197.844 213.844 198.219C214.219 199.719 216 200.469 219.188 200.469V212C215 212 211.438 210.938 208.5 208.812C205.062 206.312 203.344 203.25 203.344 199.625ZM204 171.969C204.062 168.781 205.375 165.875 207.938 163.25C211.188 160.125 214.969 158.562 219.281 158.562V170.094C216.406 170.156 214.938 172.156 214.875 176.094L204 171.969ZM247.125 197.938L258.75 195.781C258.75 197.844 259.812 199.312 261.938 200.188C262.688 200.438 263.375 200.594 264 200.656V212.469C256.75 212.469 251.719 209.906 248.906 204.781C247.719 202.656 247.125 200.375 247.125 197.938ZM247.688 173.188C247.688 167.375 250.406 163.062 255.844 160.25C258.531 158.812 261.188 158.094 263.812 158.094V169.719C260.75 169.781 259.219 170.938 259.219 173.188C259.219 175.562 262.094 177.656 267.844 179.469C269.969 180.156 272.469 180.812 275.344 181.438C279.656 182.25 282.719 184.656 284.531 188.656C285.469 190.719 285.938 193 285.938 195.5C285.938 202 283.375 206.781 278.25 209.844C275.312 211.594 271.969 212.469 268.219 212.469V200.656C270.406 200.656 272.031 199.938 273.094 198.5C273.594 197.812 273.844 197.062 273.844 196.25C273.844 194.312 271.469 192.625 266.719 191.188C265.969 191 264.812 190.688 263.25 190.25C259.938 189.375 257.656 188.656 256.406 188.094C251.844 185.781 249.094 182.375 248.156 177.875C247.844 176.375 247.688 174.812 247.688 173.188ZM268.031 169.719L268.125 158.094C273.75 158.094 278.281 160.156 281.719 164.281C283.906 166.969 285 169.812 285 172.812L273.469 174.781C273.469 171.969 271.969 170.312 268.969 169.812C268.594 169.75 268.281 169.719 268.031 169.719ZM291.375 197.469V172.906C291.438 169.656 292.812 166.594 295.5 163.719C298.75 160.281 302.906 158.562 307.969 158.562V170.562C305.344 170.75 303.906 171.594 303.656 173.094V197.469C303.656 198.969 304.75 199.812 306.938 200C307.312 200.062 307.688 200.094 308.062 200.094V212C301.438 212 296.562 209.406 293.438 204.219C292.062 201.906 291.375 199.656 291.375 197.469ZM312.281 170.656V158.562C317.219 158.562 321.219 160.469 324.281 164.281C326.469 166.969 327.562 170 327.562 173.375L316.125 177.781V174.688C316 172.062 314.719 170.719 312.281 170.656ZM312.281 212.094V200C314.969 200 316.531 199.281 316.969 197.844C317.156 197.281 317.25 196.625 317.25 195.875V192.781L328.688 197.188C328.75 201.438 326.812 205.156 322.875 208.344C319.625 210.969 316.094 212.219 312.281 212.094ZM334.125 197.469V173C334.125 169.938 335.469 166.938 338.156 164C341.531 160.438 345.812 158.625 351 158.562V170.75C348.188 171 346.688 172.188 346.5 174.312V196.156C346.625 198.594 348.125 199.844 351 199.906V212.094C344.875 212.094 340.125 209.625 336.75 204.688C335 202.125 334.125 199.719 334.125 197.469ZM355.312 212.094V199.906C357.938 199.594 359.375 198.406 359.625 196.344L359.531 174.312C359.094 172.062 357.656 170.875 355.219 170.75V158.562C361.094 158.562 365.688 160.938 369 165.688C370.75 168.25 371.625 170.688 371.625 173V197.469C371.625 200.594 370.281 203.656 367.594 206.656C364.344 210.219 360.25 212.031 355.312 212.094Z" fill="white"/>
</svg>
